<svg width="920" height="280" viewBox="0 0 920 280" fill="none" xmlns="http://www.w3.org/2000/svg" role="img" aria-labelledby="jultechLogoTitle jultechLogoDesc">
  <title id="jultechLogoTitle">JulTech AI-Ready Engine logo</title>
  <desc id="jultechLogoDesc">JulTech wordmark with Jul in gold, Tech in white, and AI-READY ENGINE beneath in gold.</desc>
  <rect width="920" height="280" rx="28" fill="#111111"/>
  <rect x="8" y="8" width="904" height="264" rx="20" stroke="url(#borderGlow)" stroke-opacity="0.5"/>
  <g filter="url(#goldGlow)">
    <path d="M86 91.4H113.6V162.1C113.6 177.4 109.8 189.2 102.2 197.5C94.6667 205.8 83.4667 209.95 68.6 209.95C57.5333 209.95 47.8333 207.883 39.5 203.75V180.5C46.5667 183.833 54.1 185.5 62.1 185.5C69.8333 185.5 75.6 183.367 79.4 179.1C83.8 174.3 86 167.233 86 157.9V91.4Z" fill="#F4C21A"/>
    <path d="M131.845 92.5H158.945V140.95L202.995 92.5H236.195L192.395 138L238.895 208H206.045L173.945 159.4L158.945 175.05V208H131.845V92.5Z" fill="#F4C21A"/>
    <path d="M260.645 80.2C265.712 80.2 270.012 81.9 273.545 85.3C277.078 88.6333 278.845 92.7333 278.845 97.6C278.845 102.467 277.078 106.6 273.545 110C270.012 113.333 265.712 115 260.645 115C255.645 115 251.378 113.333 247.845 110C244.312 106.6 242.545 102.467 242.545 97.6C242.545 92.7333 244.312 88.6333 247.845 85.3C251.378 81.9 255.645 80.2 260.645 80.2Z" fill="white"/>
    <path d="M246.995 126.75H273.995V208H246.995V126.75Z" fill="white"/>
    <path d="M333.455 208L299.255 126.75H327.605L347.455 180.7L367.655 126.75H395.655L361.455 208H333.455Z" fill="white"/>
    <path d="M447.737 124.35C460.937 124.35 471.671 128.483 479.937 136.75C488.204 145.017 492.337 156.017 492.337 169.75C492.337 173.017 492.104 176.15 491.637 179.15H431.887C434.421 189.617 442.521 194.85 456.187 194.85C464.987 194.85 472.654 191.917 479.187 186.05L489.987 204.2C480.521 212 468.754 215.9 454.687 215.9C439.287 215.9 426.954 211.267 417.687 202C408.487 192.667 403.887 181.783 403.887 169.35C403.887 157.017 408.454 146.233 417.587 137C426.787 127.683 436.837 123.05 447.737 123.1V124.35ZM431.487 161.55H467.687C466.621 156.617 464.454 152.917 461.187 150.45C457.987 147.917 453.954 146.65 449.087 146.65C443.687 146.65 439.287 148.017 435.887 150.75C432.487 153.417 430.354 157.017 429.487 161.55H431.487Z" fill="white"/>
    <path d="M541.017 148.9H517.917V208H490.817V148.9H474.017V126.75H490.817V124.1C490.817 112.3 494.184 103.2 500.917 96.8C507.651 90.3333 516.451 87.1 527.317 87.1C536.317 87.1 544.084 89.2 550.617 93.4L541.017 112.55C537.351 109.95 533.584 108.65 529.717 108.65C522.517 108.65 518.917 113.2 518.917 122.3V126.75H541.017V148.9Z" fill="white"/>
    <path d="M588.878 124.35C601.311 124.35 611.878 128.95 620.578 138.15C629.345 147.283 633.728 158.183 633.728 170.85C633.728 183.517 629.345 194.45 620.578 203.65C611.878 212.783 601.311 217.35 588.878 217.35C576.445 217.35 565.845 212.783 557.078 203.65C548.378 194.45 544.028 183.517 544.028 170.85C544.028 158.183 548.378 147.283 557.078 138.15C565.845 128.95 576.445 124.35 588.878 124.35ZM576.428 186.55C579.828 190.083 583.978 191.85 588.878 191.85C593.778 191.85 597.928 190.083 601.328 186.55C604.795 182.95 606.528 177.717 606.528 170.85C606.528 163.983 604.795 158.783 601.328 155.25C597.928 151.65 593.778 149.85 588.878 149.85C583.978 149.85 579.828 151.65 576.428 155.25C573.028 158.783 571.328 163.983 571.328 170.85C571.328 177.717 573.028 182.95 576.428 186.55Z" fill="white"/>
    <path d="M711.87 126.75V208H684.77V199.7C678.703 210.117 669.237 215.325 656.37 215.325C645.503 215.325 636.403 211.525 629.07 203.925C621.803 196.325 618.17 185.3 618.17 170.85C618.17 156.4 621.803 145.375 629.07 137.775C636.403 130.175 645.503 126.375 656.37 126.375C669.237 126.375 678.703 131.583 684.77 142V126.75H711.87ZM649.42 185.9C652.953 189.433 657.47 191.2 662.97 191.2C668.47 191.2 672.953 189.433 676.42 185.9C679.953 182.3 681.72 177.283 681.72 170.85C681.72 164.417 679.953 159.433 676.42 155.9C672.953 152.3 668.47 150.5 662.97 150.5C657.47 150.5 652.953 152.3 649.42 155.9C645.953 159.433 644.22 164.417 644.22 170.85C644.22 177.283 645.953 182.3 649.42 185.9Z" fill="white"/>
    <path d="M800.129 208H768.229L744.729 173.2V208H717.629V92.5H744.729V159.7L766.629 126.75H798.529L769.829 166.7L800.129 208Z" fill="white"/>
    <path d="M848.661 215.9C835.661 215.9 824.628 211.333 815.561 202.2C806.495 192.933 801.961 182.05 801.961 169.55C801.961 157.05 806.495 146.2 815.561 137C824.628 127.733 835.661 123.1 848.661 123.1C857.061 123.1 864.828 125.1 871.961 129.1C879.095 133.1 884.495 138.467 888.161 145.2L864.711 158.85C863.111 155.583 860.745 153.05 857.611 151.25C854.545 149.45 851.078 148.55 847.211 148.55C842.078 148.55 837.795 150.317 834.361 153.85C830.928 157.317 829.211 162.55 829.211 169.55C829.211 176.55 830.928 181.817 834.361 185.35C837.795 188.817 842.078 190.55 847.211 190.55C851.145 190.55 854.645 189.65 857.711 187.85C860.845 186.05 863.211 183.517 864.811 180.25L888.411 193.75C884.478 200.617 878.945 206.05 871.811 210.05C864.678 213.95 856.961 215.9 848.661 215.9Z" fill="white"/>
  </g>
  <g opacity="0.95">
    <path d="M96 224H818" stroke="url(#ruleGlow)" stroke-width="1.5" stroke-linecap="round"/>
    <text x="96" y="252" fill="#F4C21A" font-family="Inter, Avenir, Montserrat, Arial, sans-serif" font-size="26" font-weight="700" letter-spacing="0.52em">AI-READY ENGINE</text>
  </g>
  <defs>
    <filter id="goldGlow" x="16" y="40" width="890" height="210" filterUnits="userSpaceOnUse" color-interpolation-filters="sRGB">
      <feFlood flood-opacity="0" result="BackgroundImageFix"/>
      <feBlend mode="normal" in="SourceGraphic" in2="BackgroundImageFix" result="shape"/>
      <feGaussianBlur stdDeviation="10" result="effect1_foregroundBlur"/>
    </filter>
    <linearGradient id="borderGlow" x1="86" y1="44" x2="846" y2="280" gradientUnits="userSpaceOnUse">
      <stop stop-color="#F4C21A" stop-opacity="0.45"/>
      <stop offset="0.5" stop-color="#FFFFFF" stop-opacity="0.12"/>
      <stop offset="1" stop-color="#F4C21A" stop-opacity="0.3"/>
    </linearGradient>
    <linearGradient id="ruleGlow" x1="96" y1="224.5" x2="818" y2="224.5" gradientUnits="userSpaceOnUse">
      <stop stop-color="#F4C21A" stop-opacity="0"/>
      <stop offset="0.18" stop-color="#F4C21A" stop-opacity="0.8"/>
      <stop offset="0.82" stop-color="#F4C21A" stop-opacity="0.8"/>
      <stop offset="1" stop-color="#F4C21A" stop-opacity="0"/>
    </linearGradient>
  </defs>
</svg>