<svg xmlns="http://www.w3.org/2000/svg" width="1050" height="600" viewBox="0 0 1050 600" fill="none">
  <defs>
    <linearGradient id="goldLine" x1="0" y1="0" x2="1" y2="0">
      <stop offset="0" stop-color="#8D6B12" stop-opacity="0"/>
      <stop offset="0.2" stop-color="#C89B2C"/>
      <stop offset="0.5" stop-color="#F5C84C"/>
      <stop offset="0.8" stop-color="#C89B2C"/>
      <stop offset="1" stop-color="#8D6B12" stop-opacity="0"/>
    </linearGradient>
    <radialGradient id="goldGlow" cx="0" cy="0" r="1" gradientUnits="userSpaceOnUse" gradientTransform="translate(525 290) rotate(90) scale(260 360)">
      <stop offset="0" stop-color="#F5C84C" stop-opacity="0.14"/>
      <stop offset="0.55" stop-color="#F5C84C" stop-opacity="0.04"/>
      <stop offset="1" stop-color="#F5C84C" stop-opacity="0"/>
    </radialGradient>
    <pattern id="grain" width="32" height="32" patternUnits="userSpaceOnUse">
      <circle cx="6" cy="7" r="0.6" fill="#FFFFFF" fill-opacity="0.035"/>
      <circle cx="15" cy="11" r="0.7" fill="#FFFFFF" fill-opacity="0.03"/>
      <circle cx="25" cy="8" r="0.55" fill="#FFFFFF" fill-opacity="0.025"/>
      <circle cx="9" cy="22" r="0.5" fill="#F5C84C" fill-opacity="0.03"/>
      <circle cx="22" cy="24" r="0.7" fill="#FFFFFF" fill-opacity="0.025"/>
    </pattern>
    <filter id="softShadow" x="0" y="0" width="1050" height="600" filterUnits="userSpaceOnUse" color-interpolation-filters="sRGB">
      <feDropShadow dx="0" dy="18" stdDeviation="22" flood-color="#000000" flood-opacity="0.45"/>
    </filter>
  </defs>

  <rect width="1050" height="600" fill="#050505"/>
  <rect width="1050" height="600" fill="url(#goldGlow)"/>
  <rect width="1050" height="600" fill="url(#grain)" opacity="0.65"/>

  <rect x="34" y="34" width="982" height="532" rx="22" stroke="#C89B2C" stroke-opacity="0.28"/>
  <path d="M90 208H960" stroke="url(#goldLine)" stroke-width="2" stroke-linecap="round"/>
  <path d="M140 520H910" stroke="url(#goldLine)" stroke-width="2" stroke-linecap="round"/>

  <image href="../logotip.png" x="360" y="58" width="330" height="122" preserveAspectRatio="xMidYMid meet"/>

  <text x="525" y="244" text-anchor="middle" fill="#F5C84C" font-family="Helvetica, Arial, sans-serif" font-size="20" font-weight="600" letter-spacing="8">SCAN TO VISIT JULTECH</text>

  <g filter="url(#softShadow)">
    <rect x="381" y="266" width="288" height="288" rx="24" fill="#FFFFFF"/>
    <rect x="381" y="266" width="288" height="288" rx="24" stroke="#F5C84C" stroke-opacity="0.65" stroke-width="3"/>
  </g>

  <g transform="translate(402 287) scale(6)">
    <path fill="#FFFFFF" d="M0 0h41v41H0z"/>
    <path stroke="#000000" d="M4 4.5h7m1 0h2m1 0h1m1 0h3m3 0h2m1 0h1m1 0h1m1 0h7M4 5.5h1m5 0h1m3 0h1m1 0h2m1 0h3m4 0h1m1 0h1m1 0h1m5 0h1M4 6.5h1m1 0h3m1 0h1m1 0h3m1 0h1m2 0h2m1 0h1m2 0h1m1 0h2m1 0h1m1 0h3m1 0h1M4 7.5h1m1 0h3m1 0h1m3 0h1m1 0h1m3 0h1m1 0h4m1 0h2m1 0h1m1 0h3m1 0h1M4 8.5h1m1 0h3m1 0h1m1 0h3m3 0h1m1 0h1m5 0h1m3 0h1m1 0h3m1 0h1M4 9.5h1m5 0h1m2 0h1m1 0h1m2 0h1m3 0h1m2 0h4m1 0h1m5 0h1M4 10.5h7m1 0h1m1 0h1m1 0h1m1 0h1m1 0h1m1 0h1m1 0h1m1 0h1m1 0h7M12 11.5h1m1 0h1m2 0h2m4 0h2m1 0h2M9 12.5h2m3 0h3m9 0h3m1 0h1m1 0h1m1 0h1m1 0h1M4 13.5h1m1 0h1m1 0h2m2 0h2m1 0h1m5 0h1m1 0h2m1 0h2m1 0h1m1 0h2m1 0h2M5 14.5h3m2 0h1m1 0h1m1 0h1m1 0h1m1 0h1m1 0h1m1 0h1m1 0h2m3 0h3m1 0h1m1 0h1M6 15.5h1m4 0h3m1 0h2m2 0h1m2 0h3m1 0h3m1 0h2m1 0h4M6 16.5h1m3 0h1m1 0h2m1 0h4m1 0h1m1 0h7m1 0h1m1 0h2m2 0h1M4 17.5h4m3 0h1m1 0h2m1 0h1m2 0h1m1 0h1m2 0h4m2 0h1m3 0h1m1 0h1M4 18.5h1m1 0h1m1 0h3m1 0h1m1 0h3m3 0h1m1 0h2m2 0h1m3 0h1m2 0h3M4 19.5h5m2 0h3m1 0h1m2 0h1m2 0h3m5 0h2m1 0h1m1 0h3M4 20.5h1m1 0h1m3 0h2m5 0h1m2 0h1m1 0h1m8 0h4m1 0h1M4 21.5h2m2 0h1m2 0h1m2 0h3m1 0h2m1 0h1m1 0h2m2 0h2m1 0h2M7 22.5h1m1 0h2m3 0h6m3 0h3m1 0h1m4 0h3M5 23.5h1m2 0h1m2 0h4m1 0h2m1 0h2m1 0h2m3 0h2m1 0h1m2 0h2m1 0h1M5 24.5h2m3 0h1m1 0h2m4 0h2m1 0h2m3 0h1m2 0h5m1 0h2M4 25.5h1m1 0h1m2 0h1m1 0h1m2 0h3m2 0h2m4 0h2m1 0h1m1 0h1m1 0h3M4 26.5h1m3 0h3m1 0h2m2 0h3m1 0h2m2 0h3m5 0h2m1 0h1M4 27.5h1m2 0h1m1 0h1m1 0h2m5 0h2m2 0h3m1 0h1m1 0h1m2 0h1m1 0h3M4 28.5h4m2 0h2m1 0h1m1 0h1m3 0h3m1 0h1m1 0h8m3 0h1M12 29.5h1m1 0h1m7 0h4m2 0h1m3 0h1m2 0h2M4 30.5h7m5 0h3m3 0h3m1 0h3m1 0h1m1 0h1m1 0h2M4 31.5h1m5 0h1m1 0h1m4 0h2m5 0h5m3 0h4M4 32.5h1m1 0h3m1 0h1m2 0h2m2 0h3m3 0h1m1 0h2m1 0h5m2 0h2M4 33.5h1m1 0h3m1 0h1m2 0h1m2 0h1m2 0h1m1 0h1m1 0h1m1 0h1m3 0h1m1 0h3m1 0h1M4 34.5h1m1 0h3m1 0h1m2 0h2m2 0h1m1 0h2m4 0h1m6 0h2m1 0h2M4 35.5h1m5 0h1m2 0h1m1 0h5m4 0h1m2 0h1m2 0h1m2 0h1M4 36.5h7m3 0h1m1 0h1m2 0h1m1 0h5m1 0h2m1 0h1m3 0h2"/>
  </g>

  <text x="525" y="539" text-anchor="middle" fill="#E9E9E9" font-family="Helvetica, Arial, sans-serif" font-size="20" font-weight="500" letter-spacing="1.6">www.jultechai.com</text>
  <text x="525" y="572" text-anchor="middle" fill="#B98D25" font-family="Helvetica, Arial, sans-serif" font-size="13" letter-spacing="4">HIGH GOOGLE VISIBILITY  •  AI-DRIVEN GROWTH</text>
</svg>